<?xml version="1.0" encoding="utf-8" ?>
<svg xmlns="http://www.w3.org/2000/svg" xmlns:xlink="http://www.w3.org/1999/xlink" width="1024" height="1024">
	<path fill="#FEFEFE" d="M0 0L1024 0L1024 1024L0 1024L0 0Z"/>
	<path fill="#3A476D" d="M490.588 706.06L491.64 706.009C500.648 705.716 509.733 705.975 518.75 705.948C522.881 705.936 528.691 705.128 532.605 706.171C533.729 706.47 535.001 707.422 535.804 708.241C536.676 709.129 537.605 710.566 537.888 711.792C538.631 715.02 538.054 719.478 538.069 722.892C538.114 733.177 538.235 743.479 537.975 753.76C536.694 755.879 535.223 757.454 533.485 759.179L489.75 759.04C488.119 758.745 486.541 757.499 485.702 756.082C485.143 755.135 484.915 754.23 484.857 753.139C484.595 748.175 484.263 711.986 485.189 709.987C486.165 707.881 488.619 706.992 490.588 706.06Z"/>
	<path fill="#3A476D" d="M412.587 706.042L454.648 706.027C456.897 707.277 458.396 708.716 460.133 710.558C460.12 721.388 460.169 732.219 460.172 743.049C460.172 746.382 460.899 752.293 459.665 755.285C458.867 757.221 457.19 758.219 455.405 759.102C445.205 759.458 434.904 759.2 424.694 759.205C420.843 759.207 414.7 760.019 411.17 758.883C409.827 758.451 408.534 757.363 407.821 756.167C407.139 755.023 406.932 753.932 406.836 752.622C406.126 742.96 406.801 732.664 406.846 722.934C406.863 719.332 406.176 713.725 407.124 710.343C407.759 708.075 410.655 706.983 412.587 706.042Z"/>
	<path fill="#3A476D" d="M568.686 706.061L569.272 706.025C577.434 705.645 585.749 705.966 593.926 705.96C599.075 705.956 604.664 705.449 609.75 706.011C611.235 706.176 612.758 707.132 613.795 708.184C614.713 709.116 615.76 710.754 615.975 712.063C616.572 715.693 616.057 720.122 616.066 723.859C616.092 733.812 616.135 743.768 616.012 753.72C614.675 755.866 613.059 758.375 610.624 759.208L567.194 759.034C565.736 758.133 564.527 757.112 563.25 755.97C561.597 750.573 561.99 744.771 561.974 739.193C561.944 729.016 562.178 719.164 562.986 709.024L568.686 706.061Z"/>
	<path fill="#644C79" d="M489.932 629.597L533.406 629.53C535.489 631.511 536.956 633.199 538.375 635.736C538.283 644.845 538.367 653.959 538.366 663.068C538.365 668.379 538.687 673.895 537.929 679.15C536.64 681.089 535.041 682.686 533.438 684.361C527.445 684.369 491.482 685.301 488.757 683.905C487.101 683.057 485.64 681.79 485.017 680C484.034 677.173 484.597 672.67 484.589 669.676C484.571 662.24 484.618 654.802 484.579 647.366C484.559 643.723 483.558 636.516 485.187 633.431L485.437 633C486.621 630.905 487.787 630.41 489.932 629.597Z"/>
	<path fill="#3A476D" d="M493.877 781.219C499.57 780.541 505.629 780.963 511.381 780.955C518.523 780.946 526.616 780.135 533.583 781.791C535.556 783.732 536.904 785.389 538.282 787.81C538.314 796.923 538.343 806.036 538.357 815.149C538.364 819.713 538.905 825.05 537.93 829.478L537.734 830.234C537.626 830.865 537.706 831.39 537.461 832C536.489 834.414 533.161 835.315 530.959 836.171L489.405 835.993L484.555 831.62L484.701 785.428C485.719 784.424 487.443 782.337 488.657 781.75C489.678 781.257 492.622 781.347 493.877 781.219Z"/>
	<path fill="#644C79" d="M333.528 629.579C343.696 629.368 353.908 629.537 364.081 629.529C368.06 629.526 374.09 628.767 377.863 629.805C379.412 630.231 381.171 631.675 381.926 633.085C382.922 634.946 382.992 677.139 381.883 680.099C381.066 682.279 379.674 683.224 377.64 684.167L333.614 684.43L328.711 679.495L328.797 634.329L333.528 629.579Z"/>
	<path fill="#644C79" d="M411.598 629.6C422.006 629.247 432.534 629.545 442.953 629.517C446.442 629.507 453.563 628.593 456.551 630.157L457 630.416C458.123 631.034 459.04 631.725 459.7 632.865C460.208 633.74 460.378 634.516 460.467 635.515C460.734 638.518 460.456 641.803 460.457 644.827C460.459 651.513 460.458 658.198 460.443 664.883C460.433 669.169 461.351 676.112 459.935 680.042C459.221 682.024 457.6 683.196 455.825 684.149C446.449 685.16 436.212 684.405 426.746 684.406C422.051 684.406 415.646 685.228 411.209 684.09C409.735 683.713 408.236 682.404 407.507 681.071C406.907 679.973 406.703 678.63 406.631 677.397C406.07 667.793 406.567 657.903 406.565 648.27C406.565 644.385 405.562 637.283 406.956 633.776C407.856 631.514 409.504 630.613 411.598 629.6Z"/>
	<path fill="#644C79" d="M256.693 629.616L300.493 629.573C301.647 630.69 304.019 632.364 304.461 633.825L304.736 634.75C306.009 638.698 305.185 644.53 305.183 648.75C305.181 654.72 305.184 660.69 305.17 666.66C305.159 671.268 305.302 675.712 304.35 680.25C302.885 681.998 301.467 683.05 299.51 684.21L256.858 684.379C254.836 683.413 253.396 682.201 251.756 680.688C250.508 670.277 250.892 659.794 250.884 649.312C250.881 644.942 250.19 639.13 251.37 634.969L251.511 634.5L251.67 633.721C252.373 631.614 254.818 630.425 256.693 629.616Z"/>
	<path fill="#644C79" d="M723.646 629.584C733.413 629.329 743.241 629.523 753.014 629.52C756.948 629.519 762.306 628.87 766.093 629.662C768.255 630.114 770.404 631.955 771.576 633.814C772.932 635.964 772.9 673.954 772.039 678.25C771.447 681.204 768.86 682.743 766.503 684.209L722.578 684.413L718.692 680.504L718.616 679.965C717.362 673.808 717.95 666.791 717.922 660.488C717.882 651.677 717.584 642.778 718.117 633.982C719.875 632.17 721.505 630.906 723.646 629.584Z"/>
	<path fill="#644C79" d="M178.552 629.63L222.414 629.547L227.464 634.642L227.337 679.361L222.401 684.376C211.954 684.389 201.507 684.398 191.06 684.395C187.193 684.393 182.199 685.029 178.5 684.224C176.697 683.831 175.359 682.371 174.513 680.812C172.888 677.815 172.991 673.622 172.965 670.305C172.927 665.331 172.966 660.355 172.953 655.381C172.936 649.004 171.93 640.389 173.802 634.324C174.582 631.796 176.311 630.78 178.552 629.63Z"/>
	<path fill="#644C79" d="M567.633 629.633L611.524 629.533C613.433 631.442 614.995 633.318 616.461 635.585L616.31 679.429L611.442 684.39L566.577 684.4L562.66 680.446L562.635 680.247C561.715 675.77 561.876 671.389 561.872 666.843C561.865 661.204 561.875 655.565 561.888 649.926C561.897 645.451 560.918 637.416 562.811 633.409C563.732 631.459 565.778 630.455 567.633 629.633Z"/>
	<path fill="#644C79" d="M800.484 629.577L845.406 629.552C846.619 630.727 848.348 632.09 849.178 633.56L849.486 634.25C849.884 635.027 850.18 635.382 850.318 636.25C850.849 639.612 850.33 643.905 850.337 647.358C850.351 654.317 850.365 661.276 850.359 668.235C850.356 671.53 850.714 675.448 849.921 678.655C849.294 681.194 846.974 682.799 844.894 684.111C839.881 684.749 834.477 684.387 829.413 684.391C819.798 684.399 810.184 684.398 800.569 684.394L796.09 679.565C795.47 674.099 795.753 668.438 795.729 662.934C795.689 653.734 795.635 644.533 795.681 635.332C797.048 633.15 798.709 631.418 800.484 629.577Z"/>
	<path fill="#644C79" d="M645.786 629.573L689.399 629.531L694.464 634.584C694.387 645.553 694.445 656.523 694.43 667.492C694.425 671.16 695.241 677.546 693.564 680.792C692.541 682.773 691.087 683.691 689.016 684.308L644.59 684.415L640.081 679.538C639.404 672.723 639.878 665.524 639.852 658.662C639.821 650.54 639.048 641.905 640.205 633.869C641.958 632.048 643.58 630.807 645.786 629.573Z"/>
	<path fill="#F58848" d="M489.283 326.135C499.505 325.607 509.95 325.975 520.196 325.951C524.133 325.941 530.464 325.119 534.056 326.473C536.084 327.238 537.538 329.157 538.333 331.097C539.684 334.391 538.973 340.258 538.985 343.928C539.007 351.17 539.006 358.413 538.982 365.655C538.97 369.241 539.564 373.936 538.053 377.207C537.091 379.289 535.174 380.211 533.136 380.968L488.541 380.94C486.983 379.907 485.258 378.826 484.462 377.064C483.076 373.995 483.902 367.296 483.89 363.833C483.867 357.423 483.897 351.012 483.777 344.604C483.703 340.674 482.698 333.762 484.374 330.149C485.356 328.03 487.229 326.993 489.283 326.135Z"/>
	<path fill="#F58848" d="M411.757 326.183C421.584 325.603 431.685 326.02 441.54 326.002C445.739 325.995 452.774 325.072 456.548 326.574C458.418 327.318 459.879 328.866 460.539 330.75C461.639 333.892 461.01 339.001 461.018 342.393C461.035 350.431 461.031 358.47 461.013 366.508C461.006 369.517 461.675 374.505 460.32 377.133C459.195 379.317 457.038 380.265 454.827 380.987C443.969 381.135 433.106 381.076 422.248 381.033C418.932 381.02 414.183 381.674 411.119 380.832C408.82 380.2 407.371 378.872 406.347 376.741C405.2 374.357 405.919 367.918 405.918 365.146C405.916 358.384 405.974 351.616 405.884 344.855C405.824 340.325 404.9 333.953 406.566 329.75C408.166 327.964 409.565 327.129 411.757 326.183Z"/>
	<path fill="#F45755" d="M489.389 401.126C499.06 400.725 508.885 400.999 518.569 400.98C522.943 400.972 529.123 400.214 533.315 401.232C535.267 401.705 537.015 403.114 537.951 404.88C538.567 406.042 538.842 407.19 538.93 408.5C539.585 418.321 539.006 428.597 538.982 438.46C538.973 442.125 539.832 448.407 538.478 451.694C537.562 453.917 535.52 455.334 533.383 456.201C527.95 456.899 521.988 456.263 516.476 456.296C510.618 456.33 504.761 456.387 498.904 456.416C495.688 456.432 491.873 456.812 488.75 455.98C487.054 455.529 485.257 454.174 484.508 452.561C483.362 450.092 483.89 445.631 483.881 442.871C483.856 435.748 483.872 428.623 483.817 421.5C483.784 417.108 482.608 409.24 484.328 405.275C485.249 403.152 487.37 401.978 489.389 401.126Z"/>
	<path fill="#F58848" d="M567.315 326.122C576.397 325.66 585.675 326.008 594.776 326.005C599.994 326.003 606.636 325.236 611.657 326.429C613.533 326.874 614.862 328.175 615.774 329.838C618.187 334.236 617.007 357.197 616.995 363.472C616.988 367.129 617.665 372.631 616.513 376C615.574 378.743 613.607 379.766 611.112 380.939C600.84 381.47 590.322 381.1 580.031 381.056C576.052 381.04 570.289 381.719 566.505 380.68C564.538 380.14 563.197 379.026 562.309 377.196C560.884 374.259 560.696 333.043 562.148 330.036C563.141 327.981 565.355 326.988 567.315 326.122Z"/>
	<path fill="#F45755" d="M333.907 401.131C343.934 400.634 354.154 400.992 364.199 400.999C368.304 401.001 374.898 400.19 378.716 401.396C380.346 401.911 381.775 403.223 382.531 404.75C384.396 408.512 383.089 416.32 383.109 420.621C383.143 427.908 383.279 435.194 383.329 442.481C383.346 445.044 383.797 449.597 382.761 451.899C381.794 454.048 380 455.032 377.978 456.027C369.474 456.765 360.554 456.164 352 456.216C347.961 456.241 343.923 456.325 339.884 456.378C337.726 456.406 334.983 456.622 332.919 455.938C330.901 455.268 329.18 453.405 328.429 451.434C327.225 448.274 327.979 442.164 327.973 438.702C327.963 432.511 328 426.321 327.916 420.131C327.862 416.148 326.839 408.603 328.647 405.051C329.839 402.711 331.543 402.014 333.907 401.131Z"/>
	<path fill="#F45755" d="M411.371 401.115C421.666 400.615 432.168 400.977 442.485 400.952C446.315 400.944 453.169 400.013 456.551 401.477C458.25 402.212 460.119 403.965 460.706 405.75C461.973 409.606 461.087 415.636 461.06 419.777C461.023 425.409 462.142 449.408 460.105 452.828C458.891 454.868 457.112 455.709 454.877 456.192C447.593 456.616 440.089 456.21 432.773 456.293C428.339 456.344 423.905 456.398 419.471 456.441C417.078 456.464 414.374 456.735 412.021 456.271C409.891 455.85 408.186 455.187 406.981 453.25C404.764 449.684 405.765 426.702 405.726 421.238C405.693 416.689 404.782 410.096 406.21 405.829C407.021 403.403 409.165 402.09 411.371 401.115Z"/>
	<path fill="#F45755" d="M256.963 401.144C267.038 400.679 277.305 401.028 287.4 401.009C291.187 401.002 298.444 400.041 301.698 401.792C303.27 402.639 304.834 404.251 305.312 406.004C306.325 409.713 305.658 415.166 305.705 419.121C305.816 428.531 306.557 438.528 305.851 447.885C305.716 449.681 305.591 451.481 304.544 453.006C302.918 455.374 300.86 455.869 298.169 456.378C290.18 456.27 282.178 456.206 274.189 456.268C270.277 456.299 266.365 456.373 262.453 456.418C259.747 456.449 256.469 456.671 254.011 455.33C252.357 454.429 251.118 452.706 250.706 450.864C249.839 446.987 250.25 442.108 250.19 438.102C250.087 431.175 250.075 424.244 250.09 417.317C250.099 413.443 249.482 407.737 251.624 404.389C252.954 402.311 254.67 401.739 256.963 401.144Z"/>
	<path fill="#F58848" d="M493.007 250.234C499.994 249.996 531.326 248.754 535.504 251.805C537.397 253.188 538.649 255.316 538.877 257.658C539.722 266.339 538.99 275.88 538.971 284.643C538.96 289.579 539.697 295.749 538.703 300.497C538.477 301.577 537.742 302.78 537.022 303.598C535.397 305.442 533.457 305.741 531.125 305.969L490.75 305.956C487.536 305.827 486.03 303.929 484.033 301.702C483.835 292.9 483.959 284.076 483.898 275.271C483.858 269.5 483.44 263.445 483.854 257.707C483.967 256.141 484.109 254.485 485.183 253.25C487.291 250.825 490.009 250.57 493.007 250.234Z"/>
	<path fill="#F45755" d="M566.855 401.121C573.142 400.719 609.761 399.987 613.25 402.021C615.125 403.115 616.212 404.867 616.678 406.968C617.786 411.965 616.978 418.97 616.986 424.175C617 432.576 617.652 441.622 616.917 449.956C616.832 450.919 616.596 451.773 616.041 452.575C614.638 454.603 613.136 455.705 610.75 456.265C601.813 456.635 592.692 456.324 583.735 456.388C580.234 456.413 576.732 456.437 573.23 456.464C571.214 456.479 568.744 456.708 566.806 456.079C564.843 455.443 563.272 454.42 562.356 452.544C561.099 449.968 561.498 446.505 561.482 443.678C561.449 438.036 561.492 432.392 561.43 426.75C561.385 422.577 561.241 418.404 561.148 414.231C561.085 411.387 560.794 408.236 561.881 405.532C562.815 403.208 564.676 402.098 566.855 401.121Z"/>
	<path fill="#F45755" d="M724.039 401.141C730.33 400.835 765.824 399.999 769.25 402.024C771.092 403.113 772.165 404.951 772.657 407.003C773.81 411.812 772.978 418.342 772.98 423.391C772.983 428.998 772.946 434.605 772.96 440.212C772.968 443.312 773.209 446.672 772.871 449.75C772.727 451.064 772.151 452.247 771.39 453.315C769.977 455.3 768.51 455.917 766.155 456.231C757.492 456.115 748.84 456.204 740.177 456.305C734.992 456.365 726.287 457.597 721.5 455.585C719.656 454.81 718.478 453.269 717.901 451.397C716.586 447.13 717.285 440.781 717.224 436.25C717.143 430.237 717.083 424.224 717.047 418.211C717.028 414.976 716.736 411.451 717.122 408.25C717.283 406.913 717.724 405.613 718.426 404.459C719.705 402.351 721.797 401.765 724.039 401.141Z"/>
	<defs>
		<linearGradient id="gradient_0" gradientUnits="userSpaceOnUse" x1="511.21848" y1="552.83044" x2="510.78165" y2="607.65759">
			<stop offset="0" stop-color="#D94562"/>
			<stop offset="1" stop-color="#9A467E"/>
		</linearGradient>
	</defs>
	<path fill="url(#gradient_0)" d="M497.148 552.251C504.787 552.133 512.436 552.148 520.077 552.122C524.389 552.108 529.003 551.737 533.25 552.494C534.389 552.697 535.306 553.132 536.184 553.892C537.933 555.407 538.834 557.718 538.92 560C539.25 568.755 538.845 577.687 538.751 586.455C538.698 591.393 539.133 596.882 538.512 601.75C538.293 603.473 537.654 605.14 536.379 606.349C533.563 609.022 530.225 608.577 526.625 608.503C518.142 608.523 509.659 608.538 501.177 608.53C497.621 608.527 493.466 608.927 489.993 608.42C488.848 608.253 487.66 607.74 486.75 607.034C484.41 605.219 484.324 603.037 484.215 600.308C483.863 591.466 484.041 582.549 484.006 573.699C483.986 568.699 483.502 563.287 484.039 558.343C484.179 557.054 484.719 555.574 485.666 554.659C488.611 551.811 493.333 552.357 497.148 552.251Z"/>
	<path fill="#F45755" d="M645.536 401.16C655.864 400.543 666.502 401.006 676.86 401.019C680.778 401.024 688.849 400.064 691.953 402.338C693.36 403.369 694.638 405.26 694.884 407.013C695.636 412.379 695.015 418.753 695.023 424.212C695.034 432.592 695.569 441.412 694.946 449.75C694.849 451.057 694.328 452.153 693.557 453.199C692.061 455.229 690.468 455.902 688.043 456.313C679.821 456.138 671.581 456.132 663.358 456.247C657.591 456.328 649.257 457.496 643.811 455.808C642.243 455.322 640.511 453.711 639.909 452.182C638.819 449.412 639.09 445.6 639.072 442.652C639.039 437.422 639.033 432.192 639.029 426.962C639.024 420.773 638.636 414.416 638.945 408.25C639.005 407.037 639.41 405.897 639.974 404.828C641.197 402.512 643.169 401.904 645.536 401.16Z"/>
	<path fill="#BA4570" d="M338.954 552.242C347.14 552.02 355.373 552.139 363.564 552.127C368.119 552.12 373.285 551.622 377.75 552.51C378.997 552.758 380.049 553.413 380.972 554.272C381.895 555.132 382.644 556.251 382.895 557.5C383.681 561.409 383.057 566.759 383.062 570.787C383.075 580.394 383.226 590.034 383.052 599.638C383.014 601.725 382.711 604.526 381.107 606.002C378.444 608.453 376.554 608.635 373.125 608.528L333.736 608.596L332.965 608.124L330.929 606.844C329.552 605.828 328.637 604.314 328.432 602.607C327.574 595.47 328.149 587.472 328.087 580.252C328.029 573.418 327.256 565.657 328.089 558.91C328.257 557.544 328.757 555.903 329.676 554.857C332.05 552.153 335.657 552.409 338.954 552.242Z"/>
	<path fill="#BA4570" d="M416.651 552.239C423.221 552.074 454.518 550.723 458.395 553.802C459.851 554.959 460.8 556.914 460.937 558.75C461.572 567.229 461.01 576.174 460.955 584.694C460.915 590.743 461.523 597.843 460.493 603.75C460.331 604.677 459.883 605.316 459.219 605.977C456.97 608.216 454.666 608.485 451.613 608.506L411.75 608.465C410.279 608.294 408.514 607.018 407.61 605.853C407.031 605.106 406.579 604.123 406.424 603.187C405.881 599.928 406.086 596.146 406.061 592.831C406.014 586.639 405.996 580.447 405.983 574.254C405.972 569.122 405.244 562.776 406.013 557.75C406.267 556.085 407.125 554.902 408.494 553.951L409.017 553.612C411.188 552.189 414.13 552.364 416.651 552.239Z"/>
	<path fill="#F45755" d="M491.078 476.15C501.255 475.665 511.648 476.031 521.85 476.021C525.792 476.017 531.875 475.177 535.261 477.268C536.961 478.318 538.433 480.327 538.808 482.305C539.266 484.728 538.978 487.585 538.988 490.076C539.01 495.187 539.01 500.298 539.002 505.409C538.991 512.071 539.785 519.719 538.886 526.25C538.763 527.139 538.465 527.766 537.977 528.5C536.237 531.12 534.738 531.798 531.691 532.407C522.066 532.416 512.44 532.401 502.814 532.452C498.808 532.474 492.212 533.328 488.51 532.004C486.619 531.327 484.975 529.642 484.311 527.75C483.072 524.218 483.914 517.96 483.908 514.167C483.896 507.079 483.954 499.987 483.831 492.9C483.772 489.526 482.875 482.524 484.611 479.75C486.044 477.462 488.594 476.677 491.078 476.15Z"/>
	<path fill="#BA4570" d="M572.084 552.239C579.793 552.012 587.553 552.14 595.268 552.121C600.173 552.109 605.382 551.728 610.23 552.355C611.608 552.533 612.767 552.857 613.893 553.713C615.662 555.059 616.755 557.578 616.916 559.75C617.588 568.82 616.863 578.519 616.774 587.642C616.726 592.537 617.36 598.516 616.477 603.25C616.243 604.504 615.35 605.45 614.455 606.309C612.403 608.28 610.36 608.476 607.625 608.526C601.597 608.528 568.15 609.419 565.526 607.725C563.463 606.394 562.22 604.679 561.908 602.203C561.236 596.873 561.717 590.964 561.674 585.568C561.632 580.379 560.103 558.618 562.989 555.187C565.482 552.224 568.526 552.417 572.084 552.239Z"/>
	<defs>
		<linearGradient id="gradient_1" gradientUnits="userSpaceOnUse" x1="278.18454" y1="552.66119" x2="277.30777" y2="607.82275">
			<stop offset="0" stop-color="#DA4563"/>
			<stop offset="1" stop-color="#9D457D"/>
		</linearGradient>
	</defs>
	<path fill="url(#gradient_1)" d="M260.159 552.236C268.715 551.952 277.345 552.118 285.909 552.094C290.439 552.081 296.138 551.399 300.476 552.592C302.895 553.258 304.083 555.143 305.418 557.105C306.081 566.45 305.626 576.107 305.615 585.493C305.608 591.062 306.197 597.284 305.367 602.75C305.18 603.984 304.746 604.871 303.907 605.785C302.021 607.839 299.811 608.404 297.125 608.535C291.391 608.541 256.902 609.429 254.44 607.739L254.002 607.405C251.787 605.776 251.13 604.19 250.699 601.485C250.298 598.967 250.533 596.05 250.52 593.489C250.494 588.228 250.5 582.967 250.489 577.706C250.476 571.472 249.705 564.693 250.465 558.535C250.637 557.142 251.105 556.157 251.991 555.088C254.186 552.439 256.998 552.453 260.159 552.236Z"/>
	<path fill="#BA4570" d="M727.889 552.219C737.933 551.934 748.04 552.092 758.09 552.103C760.821 552.106 766.525 551.545 768.832 553.154C771.181 554.794 772.304 556.934 772.691 559.718C773.045 562.259 772.789 565.176 772.785 567.752C772.776 573.293 772.739 578.832 772.698 584.372C772.655 590.126 773.368 597.089 772.414 602.667C772.231 603.734 771.641 604.937 770.918 605.75C768.878 608.043 766.542 608.379 763.625 608.508C753.686 608.515 743.747 608.512 733.808 608.523C730.803 608.526 724.304 609.341 721.8 607.942L721.369 607.672L720.389 607.039C718.603 605.69 717.774 603.414 717.593 601.25C716.849 592.385 717.516 582.942 717.481 574.016C717.462 569.167 716.721 563.703 717.377 558.928C717.603 557.277 718.107 556.029 719.282 554.822C721.766 552.273 724.561 552.406 727.889 552.219Z"/>
	<path fill="#BA4570" d="M183.613 552.238C191.79 552.034 199.995 552.122 208.176 552.108C212.854 552.101 218.041 551.62 222.625 552.575C223.689 552.796 224.668 553.405 225.455 554.145C227.64 556.202 227.949 558.833 227.986 561.661C228.112 571.155 227.954 580.679 227.898 590.175C227.874 594.23 228.455 599.567 227.475 603.5C227.2 604.603 226.356 605.519 225.539 606.277C223.414 608.247 220.896 608.562 218.125 608.515C212.168 608.519 179.995 609.411 177.194 608.117C175.644 607.401 174.081 605.655 173.572 604.026L173.424 603.5L173.002 601.681C172.238 595.939 172.687 589.579 172.642 583.767C172.602 578.608 171.182 558.835 174.069 555.25C176.502 552.229 180.097 552.41 183.613 552.238Z"/>
	<path fill="#F45755" d="M335.572 476.152C341.859 475.953 375.918 474.944 379.5 477.01C381.15 477.961 382.71 479.89 383.102 481.77C383.939 485.791 383.171 491.442 383.202 495.672C383.272 505.41 384.17 515.753 383.368 525.423C383.251 526.832 382.875 527.851 382.073 529.001C380.586 531.136 378.581 531.768 376.135 532.246C366.516 532.844 356.59 532.417 346.94 532.42C342.783 532.422 335.234 533.367 331.65 531.503C330.023 530.656 328.528 528.366 328.144 526.59C327.619 524.161 327.966 521.018 327.956 518.522C327.933 512.807 327.941 507.091 327.943 501.375C327.945 495.533 327.351 489.382 327.776 483.58C327.88 482.162 328.005 480.631 328.901 479.462C330.585 477.265 332.991 476.645 335.572 476.152Z"/>
	<path fill="#F45755" d="M413.662 476.164C423.91 475.875 434.2 476.019 444.453 476.035C448.172 476.041 454.808 475.222 457.986 477.38C459.52 478.422 460.716 480.317 461.055 482.139C461.742 485.832 461.11 490.632 461.112 494.427C461.115 502.049 461.161 509.671 461.179 517.294C461.187 520.37 462.022 526.8 460.094 529.219C458.302 531.467 456.101 531.966 453.382 532.381C444.755 532.381 436.127 532.361 427.5 532.392C422.51 532.409 413.701 533.682 409.236 531.441C407.829 530.735 406.669 529.226 406.199 527.724C405.628 525.899 405.797 523.54 405.794 521.644C405.789 517.909 405.813 514.175 405.815 510.441C405.819 503.289 405.69 496.136 405.639 488.984C405.621 486.482 405.162 481.852 406.524 479.75C408.125 477.277 410.962 476.583 413.662 476.164Z"/>
	<path fill="#BA4570" d="M648.891 552.223C655.371 551.961 688.862 550.913 692.166 553.75C693.983 555.31 694.729 556.935 694.912 559.304C695.534 567.325 694.938 575.874 694.893 583.942C694.859 590.115 695.578 597.488 694.479 603.5C694.3 604.484 693.826 605.2 693.138 605.919C691.277 607.867 689.257 608.508 686.625 608.524C677.003 608.478 667.378 608.529 657.755 608.53C653.873 608.531 649.327 608.997 645.5 608.493C644.348 608.341 643.312 607.719 642.391 607.033C640.785 605.836 639.861 603.809 639.637 601.846C638.79 594.422 639.48 586.217 639.42 578.71C639.37 572.471 638.577 565.747 639.283 559.591C639.487 557.815 639.785 556.113 641.043 554.76C643.213 552.423 645.936 552.452 648.891 552.223Z"/>
	<defs>
		<linearGradient id="gradient_2" gradientUnits="userSpaceOnUse" x1="822.67999" y1="552.86481" x2="822.3327" y2="607.63214">
			<stop offset="0" stop-color="#D94662"/>
			<stop offset="1" stop-color="#9A457F"/>
		</linearGradient>
	</defs>
	<path fill="url(#gradient_2)" d="M806.111 552.253C814.125 552.142 822.141 552.123 830.156 552.103C835.502 552.089 840.886 551.849 846.185 552.665L846.731 553.111C849.224 555.184 850.701 556.906 850.928 560.25C851.49 568.519 850.885 577.282 850.807 585.593C850.757 590.937 851.338 597.199 850.425 602.417C850.191 603.752 849.473 605.034 848.515 605.982C846.071 608.401 843.898 608.496 840.625 608.518L800.508 608.516L799.451 607.801C797.683 606.549 795.798 604.765 795.516 602.5C794.926 597.763 795.395 592.528 795.301 587.732C795.177 581.375 795.027 575.027 794.998 568.669C794.984 565.597 794.714 562.194 795.082 559.164C795.257 557.718 795.825 556.086 796.776 554.971C799.217 552.111 802.673 552.379 806.111 552.253Z"/>
	<path fill="#F45755" d="M178.849 476.174C187.606 475.64 196.638 476.049 205.422 476.05C210.461 476.051 219.22 474.941 223.714 476.896C225.493 477.67 227.033 479.391 227.596 481.25C228.618 484.627 228.031 489.5 228.046 493.107C228.066 498.344 228.992 525.559 227.401 528.268C225.991 530.667 224.214 531.671 221.577 532.336C212.248 532.674 202.828 532.397 193.487 532.446C188.953 532.469 182.549 533.311 178.223 532.215C175.894 531.625 174.423 530.108 173.367 528.015C171.49 524.298 172.509 516.315 172.484 512.065C172.441 504.952 172.396 497.839 172.381 490.726C172.375 487.755 171.884 483.228 173.054 480.486C174.089 478.061 176.574 477.071 178.849 476.174Z"/>
	<path fill="#F45755" d="M567.892 476.174C574.615 475.83 608.564 474.993 612.735 476.942C614.622 477.824 616.062 479.824 616.657 481.788C617.627 484.993 616.985 490.365 616.999 493.801C617.023 499.332 618.125 525.204 616.09 528.567C614.608 531.015 612.749 531.827 610.059 532.466C600.081 532.441 590.102 532.389 580.124 532.421C576.36 532.433 569.349 533.315 565.94 531.998C564.148 531.305 562.618 529.653 561.945 527.86C561.245 525.995 561.482 523.67 561.471 521.704C561.452 518.375 561.446 515.046 561.443 511.716C561.439 506.265 561.504 500.806 561.366 495.356C561.256 490.991 560.133 483.76 562.272 479.905C563.483 477.723 565.616 476.825 567.892 476.174Z"/>
	<path fill="#F45755" d="M257.518 476.143C267.72 475.689 278.107 476.044 288.328 476.039C291.72 476.037 298.272 475.252 301.273 476.74C303.439 477.813 304.961 479.793 305.616 482.106C306.739 486.072 305.868 492.323 305.883 496.524C305.917 505.884 306.649 515.773 305.932 525.08C305.831 526.389 305.584 527.387 304.882 528.497C303.218 531.133 301.385 531.82 298.432 532.447C289.173 532.433 279.913 532.383 270.655 532.424C266.248 532.444 260.952 533.095 256.667 532.302C254.662 531.931 252.91 530.977 251.75 529.283C249.466 525.946 250.151 519.645 250.135 515.719C250.109 509.496 250.089 503.274 250.057 497.051C250.035 492.7 249.414 487.254 250.271 483.02L250.387 482.5C250.601 481.468 250.785 480.582 251.392 479.692C252.901 477.479 255.02 476.727 257.518 476.143Z"/>
	<path fill="#F45755" d="M724.045 476.133C730.719 475.871 764.146 474.987 768.205 476.871C770.044 477.725 771.968 479.871 772.556 481.828C773.595 485.283 772.985 490.44 772.998 494.096C773.016 499.432 774.044 525.091 772.102 528.297C770.653 530.69 768.746 531.687 766.102 532.315C758.963 532.544 725.855 533.692 721.336 531.519C719.259 530.52 718.132 528.806 717.524 526.621C716.416 522.64 717.02 517.101 717.002 512.928C716.97 505.562 716.964 498.197 716.988 490.832C717 487.45 716.391 482.614 718.164 479.648C719.434 477.522 721.807 476.765 724.045 476.133Z"/>
	<path fill="#F45755" d="M645.949 476.184C652.446 475.804 687.752 474.985 691.464 477.222C693.077 478.194 694.522 480.289 694.837 482.15C695.267 484.687 694.983 487.774 694.998 490.372C695.031 496.127 695.048 501.882 695.05 507.636C695.053 511.775 695.049 515.914 695.035 520.052C695.028 522.129 695.276 524.625 694.931 526.647C694.783 527.51 694.243 528.434 693.756 529.159C692.338 531.273 690.475 531.916 688.09 532.447C677.117 532.421 666.143 532.479 655.169 532.496C652.117 532.501 646.164 533.244 643.502 531.867C641.595 530.88 640.172 529.138 639.563 527.096C638.235 522.641 639.002 516.119 639.002 511.439C639.002 505.046 639.002 498.655 638.97 492.263C638.951 488.465 638.208 483.236 640.139 479.857C641.416 477.623 643.623 476.889 645.949 476.184Z"/>
	<path fill="#F45755" d="M801.459 476.145C810.141 475.668 819.05 476.043 827.755 476.046C833.277 476.047 839.96 475.342 845.315 476.497C848.132 477.105 849.504 479.583 850.912 481.834C851.009 491.843 851.035 501.854 851.039 511.864C851.041 516.379 851.463 521.307 850.973 525.75C850.85 526.866 850.414 527.698 849.818 528.627C848.388 530.856 846.804 531.665 844.277 532.225C836.198 532.755 827.859 532.361 819.752 532.401C815.622 532.421 811.492 532.474 807.363 532.497C804.699 532.512 802.087 532.714 799.537 531.794C798.049 531.258 796.165 529.18 795.622 527.72C794.458 524.591 794.952 520.442 794.949 517.153C794.942 510.332 794.953 503.51 794.947 496.688C794.944 492.808 794.544 488.82 794.7 484.966C794.769 483.266 794.97 481.79 795.708 480.237C796.889 477.754 798.997 476.987 801.459 476.145Z"/>
</svg>
